<?xml version="1.0" encoding="iso-8859-1"?><!-- Generator: Adobe Illustrator 16.0.0, SVG Export Plug-In . SVG Version: 6.00 Build 0) --><!DOCTYPE svg PUBLIC "-//W3C//DTD SVG 1.1//EN" "http://www.w3.org/Graphics/SVG/1.1/DTD/svg11.dtd"><svg version="1.1" id="Layer_1" xmlns="http://www.w3.org/2000/svg" xmlns:xlink="http://www.w3.org/1999/xlink" x="0px" y="0px" width="192.756px" height="192.756px" viewBox="0 0 192.756 192.756" style="enable-background:new 0 0 192.756 192.756;" xml:space="preserve"><g><polygon style="fill-rule:evenodd;clip-rule:evenodd;fill:#FFFFFF;" points="0,0 192.756,0 192.756,192.756 0,192.756 0,0	"/><polygon style="fill-rule:evenodd;clip-rule:evenodd;" points="3.579,116.387 3.579,104.978 21.872,87.461 3.579,87.461	3.579,75.893 42.081,75.893 42.081,87.461 23.959,104.978 42.081,104.978 42.081,116.387 3.579,116.387 3.579,116.387	"/><path style="fill-rule:evenodd;clip-rule:evenodd;" d="M166.689,100.854l7.031-24.961h15.457l-12.982,37.789l0,0	c-4.25,12.52-5.951,16.308-20.248,16.308c-2.936,0-5.881,0-152.369,0l0,0v-10.344l0,0c146.41,0,147.501,0.077,148.582,0.077	c5.023,0,6.184-2.484,4.561-6.968l0,0L143.43,75.893h16.15L166.689,100.854L166.689,100.854L166.689,100.854z"/><path style="fill-rule:evenodd;clip-rule:evenodd;" d="M111.631,70.437c2.117,0,3.836-1.715,3.836-3.833	c0-2.118-1.719-3.836-3.836-3.836c-2.119,0-3.836,1.718-3.836,3.836C107.795,68.721,109.512,70.437,111.631,70.437L111.631,70.437	L111.631,70.437L111.631,70.437z"/><path style="fill-rule:evenodd;clip-rule:evenodd;" d="M127.221,70.437c2.119,0,3.836-1.715,3.836-3.833	c0-2.118-1.717-3.836-3.836-3.836c-2.117,0-3.832,1.718-3.832,3.836C123.389,68.721,125.104,70.437,127.221,70.437L127.221,70.437	L127.221,70.437L127.221,70.437z"/><path style="fill-rule:evenodd;clip-rule:evenodd;" d="M68.621,74.736c-13.678,0-22.953,7.803-22.953,21.869	c0,13.833,10.046,20.941,23.029,20.941c12.982,0,23.028-6.953,23.028-21.793C91.725,83.159,82.917,74.736,68.621,74.736	L68.621,74.736L68.621,74.736L68.621,74.736z M68.697,106.728c-4.095,0-6.955-3.322-6.955-10.974c0-4.558,1.624-10.2,7.109-10.2	c4.174-0.23,6.801,4.251,6.801,10.2C75.652,103.405,73.025,106.728,68.697,106.728L68.697,106.728L68.697,106.728L68.697,106.728z"	/><path style="fill-rule:evenodd;clip-rule:evenodd;" d="M120.41,107.734c-4.25,0-7.959-3.169-7.959-7.961l0,0h30.68l0,0	c0.23-14.684-8.811-25.037-23.803-25.037c-12.984,0-22.952,8.499-22.952,21.79c0,13.603,10.047,21.021,23.03,21.021	c9.428,0,19.627-3.322,22.41-13.37l0,0h-15.377l0,0C125.279,106.573,122.961,107.734,120.41,107.734L120.41,107.734L120.41,107.734	L120.41,107.734z M119.947,84.551c3.787,0,7.109,3.323,7.109,7.031l0,0h-14.605l0,0C112.451,87.255,115.156,84.551,119.947,84.551	L119.947,84.551L119.947,84.551L119.947,84.551z"/></g></svg>